<svg xmlns="http://www.w3.org/2000/svg" aria-hidden="true" style="position:absolute;width:0;height:0;overflow:hidden"><defs><symbol id="icon-arrow-back" viewBox="0 0 32 32"><path stroke-linecap="round" stroke-linejoin="round" stroke-width="1.333" d="M21.333 26 10.666 16 21.333 6"/></symbol><symbol id="icon-close" viewBox="0 0 32 32"><path fill="#5f7b88" d="M5.333 0h21.333a5.333 5.333 0 0 1 5.333 5.333v21.333a5.333 5.333 0 0 1-5.333 5.333H5.333A5.333 5.333 0 0 1 0 26.666V5.333A5.333 5.333 0 0 1 5.333 0" style="fill:var(--color1, #5f7b88)"/><path fill="none" stroke="#eef5f7" stroke-linecap="round" stroke-linejoin="round" stroke-width="1.333" d="m8 8 7.667 7.667m0 0L8 23.334m7.667-7.667 7.667 7.667m-7.667-7.667L23.334 8" style="stroke:var(--color2, #eef5f7)"/></symbol><symbol id="icon-menu" viewBox="0 0 32 32"><path fill="#5f7b88" d="M5.333 0h21.333a5.333 5.333 0 0 1 5.333 5.333v21.333a5.333 5.333 0 0 1-5.333 5.333H5.333A5.333 5.333 0 0 1 0 26.666V5.333A5.333 5.333 0 0 1 5.333 0" style="fill:var(--color1, #5f7b88)"/><path fill="none" stroke="#eef5f7" stroke-linecap="round" stroke-width="1.333" d="M6.667 9.333h18.667M6.667 22.667h18.667M6.667 16h18.667" style="stroke:var(--color2, #eef5f7)"/></symbol><symbol id="icon-playstore" viewBox="0 0 142 32"><path fill="#eb4335" d="M12.984 15.303.118 28.958l.002.007a3.472 3.472 0 0 0 5.119 2.096l.041-.024 14.481-8.356z" style="fill:var(--color3, #eb4335)"/><path fill="#fabc13" d="m26 12.978-.012-.008-6.252-3.625-7.044 6.268 7.068 7.067 6.22-3.588a3.476 3.476 0 0 0 .021-6.113z" style="fill:var(--color4, #fabc13)"/><path fill="#547dbf" d="M.118 3.042A3.4 3.4 0 0 0 0 3.936v24.128q0 .467.118.894l13.308-13.306z" style="fill:var(--color5, #547dbf)"/><path fill="#30a851" d="m13.078 15.999 6.659-6.657L5.271.956A3.48 3.48 0 0 0 .117 3.038v.004z" style="fill:var(--color6, #30a851)"/><path fill="#343945" d="M45.038 1.752a2.5 2.5 0 0 0-.865-.579 2.8 2.8 0 0 0-1.054-.205q-.572 0-1.054.21-.477.21-.827.599-.345.39-.539.924-.189.534-.189 1.178c0 .644.063.824.189 1.183q.189.539.534.934.35.395.823.609.477.215 1.045.215.51 0 .941-.175c.431-.175.539-.283.757-.499q.326-.324.53-.779c.204-.455.222-.637.26-1.003h-2.416V3.51h3.338l.028.409q0 .854-.251 1.563c-.251.709-.405.882-.714 1.228q-.459.514-1.092.799a3.4 3.4 0 0 1-1.39.28 3.6 3.6 0 0 1-1.452-.29 3.6 3.6 0 0 1-1.158-.819 3.8 3.8 0 0 1-.766-1.238 4.3 4.3 0 0 1-.27-1.538q0-.839.274-1.548.274-.714.766-1.243a3.5 3.5 0 0 1 1.163-.819 3.6 3.6 0 0 1 1.452-.295 3.76 3.76 0 0 1 2.615 1.044l-.676.709zm2.171 5.886V.15h4.421v.969h-3.38V3.36h3.187v.968H48.25v2.341h3.428v.968H47.21zm8.118 0h-1.04v-6.52H52.07V.149h5.475v.969h-2.217v6.52zm4.573 0V.15h1.04v7.488zm4.733 0h-1.04v-6.52h-2.217V.149h5.475v.969h-2.217v6.52zm7.972.15a3.7 3.7 0 0 1-1.48-.29 3.5 3.5 0 0 1-1.177-.814 3.8 3.8 0 0 1-.771-1.238 4.3 4.3 0 0 1-.274-1.553q0-.843.274-1.553.274-.714.771-1.238a3.55 3.55 0 0 1 1.177-.814q.68-.29 1.48-.29.803 0 1.475.29.676.29 1.172.814.501.524.775 1.238.274.709.274 1.553 0 .839-.274 1.553a3.8 3.8 0 0 1-.775 1.238 3.5 3.5 0 0 1-1.172.814 3.7 3.7 0 0 1-1.475.29m0-.969a2.5 2.5 0 0 0 1.886-.834q.355-.4.548-.929.199-.534.199-1.163c0-.629-.066-.807-.199-1.163a2.8 2.8 0 0 0-.548-.929 2.4 2.4 0 0 0-.836-.614q-.482-.22-1.05-.22c-.568 0-.728.073-1.05.22a2.5 2.5 0 0 0-.837.614q-.355.394-.553.929c-.198.535-.199.744-.199 1.163s.066.807.199 1.163q.198.534.553.934.36.395.837.614.482.215 1.05.215m10.633.819h-1.144l-4.075-5.781v5.781h-1.041V.15h1.145l4.075 5.786V.15h1.04zm-32.502 7.678a4.5 4.5 0 0 0-1.608-1.088 5.2 5.2 0 0 0-1.976-.379q-1.069 0-1.957.389a4.4 4.4 0 0 0-1.522 1.118 5 5 0 0 0-.993 1.717q-.35.988-.35 2.197 0 1.218.35 2.236.36 1.009 1.002 1.747.653.74 1.541 1.138c.888.398 1.245.399 1.957.399q.927 0 1.702-.3a4.1 4.1 0 0 0 1.362-.879q.596-.58.974-1.388c.378-.808.419-1.138.501-1.797h-4.482v-2.037h6.685l.066.998q0 1.707-.501 3.125a7.3 7.3 0 0 1-1.409 2.446q-.916 1.029-2.175 1.587c-1.259.558-1.765.559-2.78.559a7.2 7.2 0 0 1-2.912-.589 7.3 7.3 0 0 1-2.336-1.637 7.7 7.7 0 0 1-1.551-2.476q-.549-1.418-.548-3.085 0-1.658.548-3.075a7.8 7.8 0 0 1 1.541-2.486 6.95 6.95 0 0 1 2.326-1.637 7.1 7.1 0 0 1 2.903-.589 7.6 7.6 0 0 1 2.837.539 7.6 7.6 0 0 1 2.43 1.548l-1.626 1.697zm8.841 11.692q-1.437 0-2.581-.679a4.97 4.97 0 0 1-1.797-1.847q-.652-1.178-.652-2.666c0-1.488.217-1.877.652-2.656a4.95 4.95 0 0 1 1.797-1.857q1.144-.68 2.581-.679 1.447 0 2.581.679c1.134.679 1.349 1.072 1.778 1.857q.652 1.168.652 2.656c0 1.488-.217 1.88-.652 2.666q-.643 1.168-1.778 1.847c-1.135.679-1.617.679-2.581.679m-.009-2.207q.756 0 1.352-.389c.596-.389.709-.616.936-1.068q.35-.679.35-1.538a3.2 3.2 0 0 0-.35-1.518q-.34-.68-.936-1.068c-.596-.388-.848-.389-1.352-.389q-.747 0-1.352.389-.595.39-.946 1.068-.34.669-.34 1.518a3.4 3.4 0 0 0 .34 1.538q.35.68.946 1.068.605.39 1.352.389m10.506 2.207q-1.437 0-2.581-.679a5 5 0 0 1-1.797-1.847q-.652-1.178-.652-2.666c0-1.488.217-1.877.652-2.656a4.95 4.95 0 0 1 1.797-1.857q1.144-.68 2.581-.679 1.447 0 2.581.679c1.134.679 1.349 1.072 1.778 1.857q.652 1.168.652 2.656c0 1.488-.217 1.88-.652 2.666q-.643 1.168-1.778 1.847c-1.135.679-1.617.679-2.581.679m-.009-2.207q.756 0 1.352-.389c.596-.389.709-.616.936-1.068q.35-.679.35-1.538a3.2 3.2 0 0 0-.35-1.518q-.34-.68-.936-1.068c-.596-.388-.848-.389-1.352-.389q-.747 0-1.352.389-.595.39-.946 1.068-.34.669-.34 1.518 0 .858.34 1.538.35.68.946 1.068.605.39 1.352.389m10.043 2.087q-1.314 0-2.345-.669c-1.031-.669-1.229-1.055-1.626-1.827q-.596-1.168-.596-2.636 0-1.478.596-2.636c.596-1.158.94-1.381 1.626-1.827q1.03-.669 2.345-.669 1.031 0 1.9.419c.869.419 1.072.669 1.475 1.168l.113-1.388h2.043v9.715q0 1.658-.671 2.885a4.63 4.63 0 0 1-1.873 1.897q-1.21.68-2.865.679-2.298 0-4.113-1.548l.955-2.007q1.267 1.348 3.007 1.348.983 0 1.702-.419.728-.41 1.125-1.168.407-.749.407-1.757v-.958q-.605.659-1.428 1.028c-.823.369-1.141.369-1.777.369zm.51-2.187q.746 0 1.352-.349.615-.36.974-.978.369-.62.369-1.408v-.439q0-.789-.369-1.398a2.6 2.6 0 0 0-.974-.959 2.6 2.6 0 0 0-1.352-.359q-.775 0-1.39.389-.615.38-.974 1.048-.35.669-.351 1.508c-.001.839.117 1.062.351 1.508q.359.67.974 1.058a2.6 2.6 0 0 0 1.39.379m9.154 2.107h-2.487V11.831h2.487zm10.327-1.158q-1.768 1.358-3.868 1.358-1.522 0-2.733-.699c-1.211-.699-1.447-1.102-1.919-1.907q-.7-1.207-.7-2.736 0-1.447.633-2.586a4.8 4.8 0 0 1 1.749-1.797q1.116-.659 2.516-.659 1.457 0 2.553.729 1.106.719 1.721 2.007.614 1.278.615 2.975v.32h-7.281q.17.68.596 1.198.434.52 1.079.809c.645.289.911.29 1.447.29q1.514 0 2.799-1.038l.795 1.737zm-6.809-4.433h5.22a2.9 2.9 0 0 0-.435-1.308 2.46 2.46 0 0 0-.917-.869 2.5 2.5 0 0 0-1.257-.32q-.71 0-1.267.32c-.557.32-.675.509-.908.889a3.1 3.1 0 0 0-.435 1.288zm12.21 5.591V11.831h4.69q1.778 0 3.054.599 1.286.6 1.967 1.707.69 1.108.691 2.646 0 1.527-.691 2.646-.68 1.118-1.957 1.727-1.277.599-3.044.599h-2.213v5.052zm2.496-7.358h1.957q1.636 0 2.516-.699.879-.709.879-1.967c0-1.258-.296-1.488-.889-1.947q-.88-.689-2.506-.689h-1.957zm11.735 7.358h-2.487V11.831h2.487zm9.92 0h-2.023l-.132-1.228a3.6 3.6 0 0 1-1.295 1.058 3.96 3.96 0 0 1-1.721.369q-1.002 0-1.787-.409a3.24 3.24 0 0 1-1.239-1.138q-.445-.719-.444-1.637 0-.968.482-1.697a3.36 3.36 0 0 1 1.333-1.158q.85-.42 1.938-.419a5.6 5.6 0 0 1 1.324.16q.672.16 1.239.449v-.32q0-.659-.34-1.138c-.34-.479-.533-.566-.918-.739a3 3 0 0 0-1.295-.27q-.652 0-1.305.24a4.1 4.1 0 0 0-1.22.689l-.662-1.927a8 8 0 0 1 1.853-.799 6.8 6.8 0 0 1 1.863-.27q1.333 0 2.308.559a3.7 3.7 0 0 1 1.503 1.578q.539 1.019.539 2.406zm-4.69-1.777q.615 0 1.135-.27.53-.27.861-.749.34-.49.359-1.118v-.11a3.3 3.3 0 0 0-1.002-.519 3.5 3.5 0 0 0-1.126-.19q-.87 0-1.428.419-.558.41-.558 1.078 0 .41.227.749.226.33.624.519.407.19.908.19zm10.43 6.769h-2.487l1.967-5.032-4.69-9.944h2.62l3.177 7.139 2.799-7.139h2.487l-5.872 14.977z" style="fill:var(--color7, #343945)"/></symbol></defs></svg>